<svg class="w:fit " viewBox="0 0 1362 218" fill="none" xmlns="http://www.w3.org/2000/svg">
                  <path d="m 1163.5,108.608 c 0,73.193 47.03,109.392 102.44,109.392 52.61,0 87.69,-29.436 94.86,-71.204 h -35.87 c -6.78,24.265 -25.91,38.983 -58.2,38.983 -34.28,0 -63.37,-19.889 -66.56,-65.635 h 160.63 c 0.8,-5.967 1.2,-11.536 1.2,-17.503 C 1362,51.7239 1331.31,0.806864 1264.74,0.011271 1206.94,-0.784298 1163.5,40.5858 1163.5,108.608 Z m 37.46,-18.6963 c 5.19,-40.9723 30.3,-57.6794 62.98,-57.6794 30.3,0 56.61,16.3093 60.99,57.6794 z" fill="#fffcf1" id="path132"></path>
                </svg>